 <svg  version="1.0" xmlns="http://www.w3.org/2000/svg"  width="300.000000pt" height="194.000000pt" viewBox="0 0 300.000000 194.000000"  preserveAspectRatio="xMidYMid meet">  <g transform="translate(0.000000,194.000000) scale(0.100000,-0.100000)" fill="#5e30eb" stroke="none"> <path d="M2134 1836 c-8 -21 -1 -59 12 -63 7 -2 20 4 30 14 12 13 19 14 22 5 5 -17 49 -15 56 4 17 43 -11 69 -43 40 -16 -15 -19 -15 -31 -1 -16 19 -39 19 -46 1z"/> <path d="M2071 1826 c-14 -17 -7 -36 14 -36 22 0 29 20 13 36 -13 13 -16 13 -27 0z"/> <path d="M2283 1833 c-24 -9 -14 -33 13 -33 18 0 25 5 22 17 -3 18 -16 24 -35 16z"/> <path d="M2294 1756 c-5 -12 -9 -13 -25 -3 -17 10 -22 9 -33 -5 -12 -16 -14 -16 -29 0 -15 14 -21 15 -37 4 -14 -9 -26 -9 -39 -3 -23 13 -57 -19 -48 -44 7 -17 42 -21 52 -5 4 6 13 5 25 -3 16 -9 24 -9 40 0 12 8 21 9 25 3 10 -16 45 -12 52 6 3 8 17 20 30 25 14 5 23 14 21 21 -7 19 -27 21 -34 4z"/> <path d="M1665 1742 c-3 -10 -10 -10 -24 -2 -15 8 -23 7 -33 -4 -10 -10 -17 -11 -30 -2 -13 8 -23 8 -38 -2 -16 -9 -24 -10 -39 0 -15 9 -23 9 -34 -1 -12 -10 -20 -10 -37 1 -19 11 -24 10 -40 -10 -19 -22 -35 -16 -25 10 4 10 -2 13 -22 12 -15 -1 -38 -2 -50 -3 -13 0 -23 -7 -23 -14 0 -7 -13 -12 -32 -12 -23 0 -34 -5 -36 -17 -4 -22 25 -24 54 -4 18 13 46 20 68 17 5 0 3 -8 -4 -16 -7 -8 -11 -15 -9 -15 75 -8 111 -7 122 4 10 11 14 11 23 -2 10 -13 17 -14 36 -5 16 7 30 8 41 2 10 -6 23 -6 35 0 11 6 24 6 35 0 21 -12 57 5 57 26 0 8 4 15 9 15 5 0 7 -9 4 -21 -5 -17 -2 -20 18 -17 17 2 24 9 23 25 0 17 5 21 25 20 17 -1 26 3 26 12 0 20 -92 22 -100 3z"/> <path d="M1782 1728 c-20 -20 -14 -28 19 -28 24 0 30 4 27 17 -4 22 -29 28 -46 11z"/> <path d="M2020 1720 c0 -5 11 -10 25 -10 14 0 25 5 25 10 0 6 -11 10 -25 10 -14 0 -25 -4 -25 -10z"/> <path d="M2113 1664 c-3 -9 -15 -11 -35 -7 -20 4 -33 1 -40 -8 -7 -11 -11 -11 -15 -1 -6 16 -38 15 -53 -3 -29 -35 12 -72 44 -40 9 9 16 12 16 7 0 -14 29 -24 43 -15 7 4 23 6 36 4 13 -1 28 3 32 11 7 10 9 10 9 1 0 -7 9 -13 19 -13 17 0 41 42 41 71 0 14 -22 10 -42 -8 -15 -14 -18 -14 -18 -1 0 18 -30 20 -37 2z"/> <path d="M1772 1654 c-8 -14 -13 -14 -32 -4 -18 10 -25 9 -38 -3 -12 -12 -19 -13 -33 -4 -15 9 -24 9 -39 0 -12 -8 -21 -9 -25 -3 -11 17 -44 11 -56 -11 -16 -31 9 -56 40 -40 15 9 26 9 42 1 16 -9 24 -8 37 3 15 13 19 13 30 1 9 -10 18 -11 32 -4 10 5 26 7 34 4 24 -9 46 14 46 47 0 32 -23 40 -38 13z"/> <path d="M1910 1651 c-16 -32 -13 -63 7 -59 21 4 44 45 36 64 -8 20 -31 17 -43 -5z"/> <path d="M2220 1655 c-17 -21 -8 -50 17 -53 28 -4 50 32 32 54 -15 18 -33 18 -49 -1z"/> <path d="M1228 1641 c-9 -15 -15 -17 -30 -8 -13 9 -23 9 -36 0 -13 -7 -24 -8 -37 -1 -13 8 -24 7 -37 -1 -14 -8 -23 -8 -38 1 -17 11 -23 9 -41 -9 -35 -35 -19 -51 51 -50 33 0 63 4 66 9 3 4 14 3 25 -2 13 -7 25 -7 37 -1 13 7 23 6 30 -1 9 -9 17 -7 32 7 11 10 20 13 20 7 0 -14 46 -16 55 -2 4 6 13 5 25 -2 14 -9 25 -9 44 0 14 6 26 8 26 3 0 -5 20 -9 46 -9 47 1 74 23 74 60 0 22 -35 24 -44 3 -5 -13 -9 -13 -25 -3 -17 10 -23 9 -40 -6 -12 -11 -21 -14 -21 -9 0 19 -33 24 -49 9 -13 -14 -17 -14 -33 1 -17 15 -19 15 -38 -2 -20 -18 -21 -18 -27 3 -7 27 -19 28 -35 3z"/> <path d="M962 1638 c-18 -18 -14 -28 8 -28 11 0 20 6 20 14 0 21 -15 27 -28 14z"/> <path d="M1929 1574 c-1 -2 -2 -18 -3 -35 -1 -28 2 -30 29 -28 17 1 38 -2 48 -6 11 -5 24 -2 35 8 15 13 19 13 30 1 17 -19 52 -1 52 27 0 25 -27 36 -51 21 -11 -7 -20 -8 -24 -2 -9 15 -45 12 -51 -5 -8 -21 -27 -19 -20 3 4 13 0 17 -19 18 -14 1 -26 0 -26 -2z"/> <path d="M2142 1568 c-7 -7 -12 -23 -12 -36 0 -20 4 -23 28 -20 20 2 28 9 30 27 5 34 -23 52 -46 29z"/> <path d="M832 1546 c-5 -6 -9 -22 -7 -36 2 -32 6 -32 217 -28 64 2 119 6 123 10 4 4 15 2 26 -5 15 -9 22 -7 41 9 13 12 31 24 41 27 9 4 17 13 17 22 0 17 -25 20 -35 5 -5 -8 -11 -7 -21 1 -11 9 -20 8 -39 -5 -14 -9 -25 -12 -25 -6 0 14 -33 13 -48 -2 -8 -8 -15 -8 -27 2 -13 11 -21 11 -36 2 -14 -9 -25 -10 -39 -2 -14 8 -26 7 -41 0 -15 -9 -24 -8 -35 0 -11 10 -19 9 -39 -4 -30 -20 -36 -20 -29 -2 7 17 -32 28 -44 12z"/> <path d="M1300 1520 c0 -11 4 -20 8 -20 4 0 8 9 8 20 0 11 -4 20 -8 20 -4 0 -8 -9 -8 -20z"/> <path d="M2207 1533 c-4 -3 -7 -11 -7 -17 0 -6 5 -5 12 2 6 6 9 14 7 17 -3 3 -9 2 -12 -2z"/> <path d="M773 1523 c-7 -2 -13 -11 -13 -19 0 -11 7 -13 28 -8 34 8 36 10 27 23 -6 11 -21 13 -42 4z"/> <path d="M2282 1487 c-6 -6 -13 -24 -17 -40 -6 -22 -4 -27 12 -27 19 0 43 36 43 65 0 18 -24 20 -38 2z"/> <path d="M2472 1484 c-6 -11 -11 -13 -16 -5 -11 16 -44 13 -54 -5 -8 -15 -10 -15 -15 0 -15 39 -70 6 -60 -35 6 -23 39 -25 51 -3 8 14 10 14 21 0 18 -21 38 -20 50 2 10 16 10 16 11 0 0 -30 30 -20 45 14 7 18 11 36 9 40 -9 14 -33 9 -42 -8z"/> <path d="M1850 1464 c-6 -14 -10 -32 -10 -40 0 -17 37 -19 43 -1 3 9 7 9 20 -1 18 -15 57 -7 57 11 0 7 5 4 11 -5 12 -22 33 -23 53 -2 9 8 16 11 16 6 0 -6 8 -13 17 -17 21 -7 55 29 47 50 -9 23 -37 28 -52 8 -10 -13 -16 -14 -19 -5 -6 16 -35 16 -51 0 -10 -10 -15 -10 -21 1 -6 9 -19 12 -40 8 -18 -4 -31 -2 -31 3 0 21 -31 9 -40 -16z"/> <path d="M1319 1464 c-6 -8 -6 -14 0 -18 5 -3 7 -14 4 -24 -4 -17 4 -18 84 -19 48 0 96 3 105 8 11 6 18 5 21 -4 3 -9 11 -9 35 -1 25 10 34 9 42 -1 13 -16 -6 -31 -33 -27 -10 2 -24 -2 -32 -8 -10 -8 -18 -8 -33 1 -16 10 -23 10 -36 0 -12 -11 -19 -11 -30 -2 -11 9 -20 10 -35 1 -14 -7 -27 -7 -39 -1 -14 7 -25 6 -39 -4 -18 -13 -22 -13 -33 0 -11 14 -16 14 -38 -1 -18 -12 -27 -13 -30 -6 -5 15 -35 15 -50 0 -8 -8 -15 -8 -26 2 -10 7 -23 9 -33 4 -10 -4 -24 -8 -32 -8 -8 -1 -16 -13 -18 -27 -3 -23 0 -26 34 -27 20 -1 42 3 50 9 9 8 13 8 13 0 0 -14 46 -15 55 -1 4 6 13 5 25 -3 16 -9 24 -9 41 2 18 10 23 10 30 0 6 -10 13 -10 34 -1 17 8 32 9 44 3 9 -5 23 -6 31 -1 7 4 28 6 45 3 19 -3 35 0 40 6 5 9 10 9 21 0 13 -10 12 -14 -2 -30 -13 -14 -20 -16 -34 -7 -14 9 -22 9 -34 -1 -10 -9 -20 -9 -34 -2 -14 7 -24 7 -38 -3 -14 -10 -22 -11 -36 -2 -13 8 -23 8 -35 0 -13 -8 -23 -8 -35 0 -13 8 -23 8 -36 -1 -13 -7 -24 -8 -37 -1 -13 8 -24 7 -37 -1 -14 -8 -23 -8 -37 1 -17 10 -23 9 -40 -6 -21 -19 -21 -19 -21 2 0 32 -27 27 -45 -9 -21 -40 -14 -62 17 -51 13 5 52 7 88 6 35 -2 69 1 76 7 8 7 14 7 18 0 7 -11 105 -9 124 3 7 4 19 2 27 -4 12 -10 20 -9 40 4 14 9 25 12 25 7 0 -14 103 -11 112 2 4 7 8 26 8 42 1 33 24 67 54 78 12 5 17 14 13 28 -3 12 0 22 9 26 8 3 14 10 14 17 0 6 10 16 22 21 29 13 35 35 9 35 -12 0 -21 -5 -21 -10 0 -8 -6 -8 -17 -1 -13 7 -23 5 -35 -6 -16 -15 -20 -15 -37 1 -18 17 -20 17 -39 -2 -17 -17 -22 -18 -26 -6 -6 17 -38 18 -54 2 -8 -8 -15 -8 -25 1 -15 12 -47 5 -47 -10 0 -5 -7 -9 -16 -9 -14 0 -14 3 -4 15 7 8 11 15 9 16 -28 6 -51 3 -60 -7z"/> <path d="M2127 1464 c-14 -14 -7 -25 13 -22 12 2 21 8 21 13 0 12 -24 18 -34 9z"/> <path d="M552 1448 c-18 -18 -14 -28 8 -28 11 0 20 6 20 14 0 21 -15 27 -28 14z"/> <path d="M591 1426 c-13 -14 -20 -29 -17 -35 8 -12 264 -10 284 2 17 12 15 47 -4 54 -9 3 -24 2 -33 -4 -11 -7 -22 -7 -34 1 -12 8 -22 8 -37 -2 -16 -9 -24 -10 -39 0 -15 9 -23 9 -36 -2 -12 -10 -19 -10 -27 -2 -18 18 -32 15 -57 -12z"/> <path d="M1260 1435 c-10 -12 -9 -16 4 -21 18 -7 49 13 40 27 -8 14 -30 11 -44 -6z"/> <path d="M887 1433 c-16 -15 -6 -34 15 -31 29 4 38 38 10 38 -10 0 -22 -3 -25 -7z"/> <path d="M2561 1403 c-6 -12 -12 -13 -28 -4 -16 8 -24 7 -33 -4 -9 -11 -16 -12 -31 -2 -15 9 -23 9 -39 0 -12 -8 -21 -9 -25 -3 -11 17 -44 11 -56 -11 -9 -17 -8 -25 5 -37 14 -14 20 -15 37 -4 16 11 24 11 36 1 11 -10 19 -10 34 -1 15 9 23 9 38 0 15 -9 23 -9 35 1 9 8 16 20 16 27 0 8 4 14 9 14 5 0 7 -8 4 -19 -4 -14 1 -18 19 -17 19 1 23 7 25 33 1 23 -4 32 -18 36 -11 3 -23 -1 -28 -10z"/> <path d="M2307 1404 c-14 -14 -7 -35 11 -32 9 2 17 10 17 17 0 16 -18 25 -28 15z"/> <path d="M1815 1373 c-14 -13 -21 -14 -35 -5 -14 9 -21 8 -31 -4 -18 -22 4 -43 30 -27 15 10 20 9 25 -2 6 -16 103 -18 123 -3 7 6 19 4 31 -3 16 -10 23 -10 36 0 36 30 5 77 -35 53 -11 -7 -20 -8 -24 -2 -10 16 -43 12 -53 -6 -8 -15 -10 -15 -15 0 -8 21 -31 20 -52 -1z"/> <path d="M2027 1367 c-3 -8 -1 -20 3 -28 7 -11 13 -10 30 6 16 14 17 20 8 27 -19 12 -35 10 -41 -5z"/> <path d="M449 1354 c-11 -14 -11 -18 -1 -22 10 -3 10 -7 1 -18 -7 -8 -9 -17 -6 -20 5 -5 95 -7 219 -4 24 0 42 7 50 18 7 10 21 21 31 25 21 8 23 37 2 37 -8 0 -15 -5 -15 -10 0 -6 -10 -8 -24 -4 -14 3 -29 0 -39 -10 -13 -14 -16 -14 -27 0 -11 13 -16 13 -35 0 -19 -13 -24 -13 -37 1 -12 12 -20 13 -37 4 -11 -7 -21 -16 -21 -22 0 -6 -4 -8 -10 -4 -5 3 -6 13 -3 22 5 12 3 14 -6 8 -8 -4 -16 -2 -21 4 -5 9 -11 7 -21 -5z"/> <path d="M2660 1319 c0 -7 -10 -9 -24 -5 -15 4 -28 0 -36 -9 -10 -12 -15 -12 -35 1 -22 14 -25 14 -36 -4 -12 -19 -12 -19 -32 1 -16 16 -21 17 -32 6 -21 -22 -22 -50 -2 -63 15 -9 21 -7 33 9 14 19 16 19 25 3 12 -22 32 -23 49 -3 11 13 14 13 24 1 14 -18 56 -4 56 19 0 8 4 15 10 15 5 0 7 -7 4 -15 -4 -9 0 -15 10 -15 9 0 19 -1 24 -2 4 -2 8 13 9 32 2 31 -1 36 -23 38 -13 1 -24 -3 -24 -9z"/> <path d="M1955 1300 c-4 -6 -16 -8 -26 -5 -11 4 -26 2 -34 -5 -10 -8 -18 -8 -34 1 -16 11 -23 10 -38 -3 -16 -14 -20 -14 -31 -2 -17 18 -31 14 -49 -12 -11 -17 -11 -23 1 -39 13 -18 15 -18 39 -2 23 15 26 15 31 1 4 -11 12 -14 24 -8 9 4 34 6 54 5 28 -1 40 3 48 19 6 11 17 20 24 20 8 0 16 6 19 14 9 23 -15 37 -28 16z"/> <path d="M2386 1281 c-7 -11 14 -20 32 -14 6 3 12 9 12 14 0 12 -37 12 -44 0z"/> <path d="M345 1240 c-9 -17 -13 -35 -10 -40 13 -20 295 0 334 25 21 12 -7 35 -32 26 -13 -5 -29 -4 -39 3 -13 8 -23 8 -36 0 -12 -8 -22 -8 -35 0 -13 8 -22 7 -39 -3 -16 -10 -23 -10 -26 -2 -5 14 -35 14 -50 -1 -9 -9 -13 -7 -18 5 -10 26 -32 20 -49 -13z"/> <path d="M1672 1259 c2 -6 7 -10 11 -10 4 1 14 1 22 1 8 0 15 5 15 10 0 6 -12 10 -26 10 -14 0 -24 -5 -22 -11z"/> <path d="M2660 1215 c-19 -23 -8 -50 20 -50 19 0 26 6 28 24 5 35 -26 53 -48 26z"/> <path d="M2517 1213 c-13 -13 -7 -51 9 -57 9 -4 24 0 33 8 14 12 18 12 29 0 19 -20 52 0 52 31 0 20 -5 25 -24 25 -14 0 -28 -5 -32 -11 -4 -8 -9 -8 -17 0 -12 12 -40 15 -50 4z"/> <path d="M1818 1196 c-10 -10 -17 -11 -30 -2 -14 8 -23 7 -40 -3 -16 -10 -23 -10 -26 -2 -5 14 -48 15 -57 1 -4 -6 -13 -5 -25 2 -15 10 -23 9 -39 -6 -40 -36 -14 -70 35 -48 15 7 24 8 24 2 0 -15 37 -12 53 5 13 13 16 13 21 0 7 -20 25 -19 48 2 11 9 18 11 18 5 0 -20 48 -14 60 7 14 26 13 29 -10 41 -14 7 -22 7 -32 -4z"/> <path d="M2445 1200 c-4 -7 -3 -16 3 -22 14 -14 47 -6 47 12 0 18 -40 26 -50 10z"/> <path d="M2735 1200 c-3 -5 1 -10 9 -10 9 0 19 0 23 -1 4 0 9 4 11 10 5 14 -35 14 -43 1z"/> <path d="M1965 1190 c-3 -5 -1 -10 4 -10 6 0 11 5 11 10 0 6 -2 10 -4 10 -3 0 -8 -4 -11 -10z"/> <path d="M2000 1185 c-10 -12 -10 -19 -2 -27 15 -15 48 14 38 31 -10 15 -21 14 -36 -4z"/> <path d="M983 1175 c-3 -9 -3 -19 1 -22 8 -9 37 18 30 28 -8 14 -24 11 -31 -6z"/> <path d="M1036 1174 c-18 -17 -21 -50 -7 -58 5 -4 20 -2 34 3 15 6 28 6 34 0 6 -6 19 -6 34 -1 13 5 54 7 91 5 37 -1 70 2 73 7 4 6 14 5 25 -3 16 -9 24 -9 40 0 12 8 21 9 25 3 16 -26 65 5 65 41 0 13 -7 19 -24 19 -14 0 -28 -4 -31 -10 -4 -6 -13 -5 -25 3 -16 9 -24 9 -41 -1 -16 -11 -24 -11 -36 -1 -11 10 -19 10 -34 1 -15 -10 -23 -9 -38 0 -17 10 -23 9 -40 -6 -12 -11 -21 -14 -21 -9 0 19 -32 24 -50 8 -15 -14 -18 -14 -30 0 -16 19 -25 19 -44 -1z"/> <path d="M320 1156 c-6 -8 -18 -12 -26 -9 -8 3 -14 1 -14 -5 0 -6 -3 -17 -6 -26 -5 -13 9 -15 105 -15 79 1 116 5 125 14 7 8 22 12 33 9 26 -7 51 21 27 30 -9 3 -23 1 -31 -5 -11 -9 -17 -8 -27 7 -12 15 -18 16 -39 7 -18 -9 -27 -9 -36 0 -9 9 -16 8 -31 -1 -15 -9 -26 -10 -40 -2 -24 13 -25 13 -40 -4z"/> <path d="M1965 1160 c-3 -5 -1 -10 4 -10 6 0 11 5 11 10 0 6 -2 10 -4 10 -3 0 -8 -4 -11 -10z"/> <path d="M2568 1139 c-9 -28 4 -69 23 -69 10 0 21 5 24 11 5 7 13 5 24 -5 15 -14 20 -14 36 -2 14 10 24 11 36 3 24 -15 49 -1 49 28 0 31 -25 43 -48 22 -15 -13 -19 -13 -30 -1 -18 19 -29 18 -42 -6 -6 -11 -16 -20 -22 -20 -5 0 -8 9 -5 20 3 11 1 20 -3 20 -5 0 -15 3 -23 6 -8 3 -17 0 -19 -7z"/> <path d="M2773 1115 c2 -29 6 -35 24 -35 25 0 39 15 23 25 -8 5 -8 11 0 20 8 9 5 14 -12 19 -36 9 -37 8 -35 -29z"/> <path d="M1896 1104 c-9 -8 -16 -24 -16 -34 0 -24 30 -34 48 -16 12 11 19 12 33 3 14 -9 24 -9 36 -1 13 8 23 8 35 0 23 -14 52 3 56 33 5 29 -24 38 -48 16 -11 -10 -20 -13 -20 -8 0 18 -29 24 -50 11 -15 -10 -22 -10 -32 0 -16 16 -23 15 -42 -4z"/> <path d="M1477 1092 c-35 -38 -7 -79 35 -53 15 9 23 9 33 1 9 -8 20 -8 32 -2 10 6 31 8 46 5 15 -3 33 0 41 6 10 8 16 9 21 1 19 -30 75 11 61 46 -6 17 -37 19 -53 3 -8 -8 -16 -7 -31 2 -18 11 -24 10 -41 -5 -12 -11 -21 -14 -21 -9 0 19 -32 24 -50 8 -15 -14 -18 -14 -30 0 -16 19 -23 19 -43 -3z"/> <path d="M983 1066 c1 -33 3 -34 46 -39 25 -3 54 -1 64 5 12 6 23 6 32 -2 10 -9 19 -9 35 0 16 9 25 9 35 0 8 -7 20 -8 26 -4 7 4 29 6 50 6 30 -1 41 3 49 19 7 11 9 27 6 35 -6 17 -38 18 -54 2 -8 -8 -15 -8 -27 2 -13 11 -21 11 -36 2 -15 -10 -23 -9 -38 0 -17 10 -23 9 -40 -6 -12 -11 -21 -14 -21 -9 0 19 -32 24 -50 8 -21 -19 -34 -19 -26 0 4 11 -2 15 -23 15 -26 0 -29 -3 -28 -34z"/> <path d="M240 1063 c-25 -32 -22 -59 5 -55 11 2 27 3 35 2 8 0 40 -1 70 0 30 0 72 0 92 0 27 0 40 6 48 19 20 39 -13 68 -42 37 -11 -12 -15 -12 -30 1 -13 11 -21 12 -37 3 -14 -7 -27 -7 -39 -1 -11 6 -24 6 -33 0 -20 -13 -29 -11 -29 6 0 23 -16 18 -40 -12z"/> <path d="M2766 1051 c-2 -3 -2 -18 1 -34 4 -20 11 -27 28 -27 19 0 23 5 22 33 -1 26 -5 32 -24 33 -13 1 -25 -1 -27 -5z"/> <path d="M2570 1024 c-13 -32 -13 -41 0 -49 18 -11 40 15 40 46 0 37 -27 39 -40 3z"/> <path d="M2707 1030 c-12 -18 -15 -18 -20 -5 -8 20 -41 19 -58 -1 -9 -11 -10 -20 -3 -32 15 -23 29 -25 48 -7 14 15 18 15 31 1 30 -29 71 17 45 49 -17 20 -26 19 -43 -5z"/> <path d="M1900 1015 c-9 -11 -16 -12 -31 -2 -15 9 -23 9 -39 -1 -16 -9 -24 -10 -39 0 -25 15 -51 -4 -51 -38 0 -25 22 -32 50 -14 9 5 19 5 27 -2 10 -8 20 -8 36 -1 15 7 29 7 40 2 11 -7 24 -6 38 1 14 8 24 8 33 1 14 -12 46 -5 46 10 0 5 9 4 20 -3 26 -17 55 0 55 33 0 29 -26 36 -49 14 -9 -9 -16 -12 -16 -7 0 18 -33 23 -50 7 -15 -14 -18 -14 -30 0 -16 19 -24 19 -40 0z"/> <path d="M1408 1004 c-13 -13 -19 -14 -37 -2 -20 12 -24 10 -41 -10 -30 -37 -17 -50 51 -49 33 0 62 4 65 8 3 5 14 3 24 -4 16 -9 24 -9 41 1 15 10 24 10 34 2 20 -17 55 5 55 34 0 30 -27 41 -50 21 -14 -13 -18 -13 -33 2 -16 16 -18 16 -33 1 -15 -15 -20 -15 -38 -2 -19 12 -24 12 -38 -2z"/> <path d="M1080 995 c-9 -11 -16 -13 -24 -5 -16 16 -41 12 -61 -10 -29 -32 -13 -49 47 -48 29 0 60 4 69 9 9 5 20 4 26 -2 15 -15 51 -2 58 22 4 10 14 19 23 19 10 0 3 8 -16 17 -30 14 -34 14 -51 -1 -16 -15 -19 -15 -31 -1 -16 19 -24 19 -40 0z"/> <path d="M455 990 c-3 -6 -16 -8 -29 -4 -14 3 -27 -1 -36 -11 -12 -14 -15 -14 -30 0 -15 14 -20 13 -45 -7 l-28 -22 5 22 c5 19 2 22 -22 22 -25 0 -28 -3 -27 -34 1 -32 3 -34 46 -39 85 -9 133 -1 152 25 l18 23 -6 -23 c-4 -17 -2 -21 11 -17 9 3 23 7 32 10 12 4 14 8 5 19 -6 7 -8 16 -4 20 4 4 1 11 -7 16 -19 12 -27 12 -35 0z"/> <path d="M1210 960 c0 -5 5 -10 11 -10 5 0 7 5 4 10 -3 6 -8 10 -11 10 -2 0 -4 -4 -4 -10z"/> <path d="M2706 943 c-13 -13 -20 -15 -23 -5 -3 6 -12 12 -22 12 -9 0 -23 -6 -30 -12 -11 -10 -14 -10 -18 0 -12 32 -68 0 -61 -35 4 -24 39 -29 54 -9 10 14 13 15 24 1 16 -19 39 -19 47 0 5 14 7 14 23 0 32 -29 77 17 50 50 -16 19 -22 19 -44 -2z"/> <path d="M2050 935 c-9 -11 -16 -12 -31 -2 -14 9 -21 9 -30 0 -6 -6 -26 -9 -44 -6 -18 3 -35 0 -39 -6 -5 -7 -13 -7 -26 2 -15 9 -25 9 -38 1 -12 -8 -22 -8 -35 0 -12 8 -22 8 -35 0 -12 -8 -24 -8 -41 -1 -19 9 -26 8 -37 -8 -21 -28 -14 -61 11 -56 11 2 36 3 55 3 19 -1 40 4 46 9 8 7 14 6 19 -1 9 -15 41 -12 55 5 11 13 14 13 26 -2 11 -16 16 -16 35 -5 14 9 25 10 31 4 16 -16 0 -32 -32 -32 -16 0 -32 -4 -35 -10 -4 -6 -13 -5 -25 3 -16 9 -24 9 -42 -2 -16 -10 -23 -10 -26 -2 -5 16 -42 13 -49 -4 -5 -14 -8 -14 -24 1 -18 16 -20 16 -39 -1 -17 -16 -21 -16 -35 -2 -18 18 -40 13 -50 -10 -5 -14 -7 -14 -19 2 -8 12 -19 15 -33 11 -21 -7 -37 -42 -27 -58 8 -12 38 -10 52 4 8 8 15 8 26 -1 17 -14 56 -6 56 12 0 6 6 2 14 -9 12 -15 18 -17 33 -8 10 6 47 10 83 8 37 -1 71 2 78 9 10 8 16 7 21 -2 12 -19 45 -9 56 17 12 28 25 29 18 1 -5 -17 -2 -20 18 -17 19 2 24 9 26 36 1 17 -3 32 -9 32 -7 0 -6 5 1 14 6 7 22 11 36 8 20 -3 27 1 35 23 5 14 10 33 10 41 0 18 -24 18 -40 -1z"/> <path d="M1636 918 c-22 -31 -21 -70 1 -66 22 4 45 50 37 72 -8 22 -20 20 -38 -6z"/> <path d="M2770 925 c0 -9 9 -15 25 -15 16 0 25 6 25 15 0 9 -9 15 -25 15 -16 0 -25 -6 -25 -15z"/> <path d="M2493 918 c2 -7 12 -13 22 -13 10 0 20 6 23 13 2 7 -6 12 -23 12 -17 0 -25 -5 -22 -12z"/> <path d="M1210 899 c0 -24 23 -21 28 4 2 10 -3 17 -12 17 -10 0 -16 -9 -16 -21z"/> <path d="M1266 904 c-9 -8 -16 -27 -16 -41 0 -23 3 -25 28 -19 15 4 33 7 40 6 112 -3 142 5 142 42 0 26 -27 34 -49 14 -16 -15 -19 -15 -24 -1 -8 19 -31 19 -47 0 -12 -14 -15 -14 -30 0 -21 19 -25 19 -44 -1z"/> <path d="M468 884 c-13 -13 -19 -14 -36 -3 -16 10 -23 10 -35 0 -12 -10 -19 -10 -35 0 -17 10 -25 10 -46 -4 -15 -10 -26 -13 -26 -7 0 18 -45 6 -48 -12 -3 -13 3 -18 22 -18 14 0 28 -5 31 -11 4 -6 21 -9 39 -8 56 4 65 1 59 -21 -3 -11 0 -20 6 -20 8 0 9 -5 2 -19 -9 -17 -6 -19 37 -24 92 -10 200 -2 220 16 10 9 21 14 25 11 8 -9 47 6 47 18 0 6 -12 8 -30 4 -22 -4 -32 -1 -36 9 -8 19 -28 19 -44 0 -12 -14 -15 -14 -31 1 -14 13 -22 14 -32 5 -8 -6 -27 -8 -44 -5 -20 4 -35 1 -46 -10 -21 -22 -30 -20 -22 4 5 14 2 20 -9 20 -9 0 -16 5 -16 10 0 7 13 9 33 5 43 -8 75 22 57 54 -13 25 -21 26 -42 5z"/> <path d="M1000 885 c-10 -12 -10 -19 -2 -27 15 -15 48 14 38 31 -10 15 -21 14 -36 -4z"/> <path d="M1064 885 c-8 -21 -3 -25 24 -18 13 3 21 11 19 17 -6 18 -37 19 -43 1z"/> <path d="M1475 891 c-3 -5 -1 -12 4 -15 12 -8 41 3 41 15 0 12 -37 12 -45 0z"/> <path d="M537 873 c-14 -13 -6 -24 15 -21 27 4 36 28 11 28 -11 0 -23 -3 -26 -7z"/> <path d="M2620 860 c0 -6 -11 -8 -26 -4 -18 5 -29 1 -38 -11 -12 -16 -13 -16 -19 -1 -8 20 -31 21 -47 1 -12 -14 -15 -14 -31 1 -17 15 -21 16 -36 2 -10 -9 -24 -13 -30 -11 -7 3 -13 0 -13 -7 0 -6 5 -8 10 -5 6 3 10 1 10 -4 0 -6 -4 -11 -10 -11 -5 0 -10 -5 -10 -12 0 -6 3 -8 6 -5 4 3 15 2 26 -4 15 -8 24 -7 38 6 18 16 20 16 36 1 15 -16 18 -16 40 5 21 20 24 20 24 5 0 -26 42 -16 57 14 12 24 13 25 13 3 0 -18 6 -23 24 -23 21 0 24 4 23 35 -1 30 -5 35 -24 35 -13 0 -23 -5 -23 -10z"/> <path d="M1497 834 c-14 -14 -7 -35 11 -32 9 2 17 10 17 17 0 16 -18 25 -28 15z"/> <path d="M1284 815 c-14 -9 -22 -10 -36 -1 -14 8 -23 8 -38 -2 -16 -10 -24 -10 -41 0 -18 11 -23 10 -40 -11 -11 -13 -18 -29 -16 -35 5 -16 45 -20 62 -6 10 8 14 8 17 -2 4 -10 11 -11 36 -1 19 6 34 7 38 2 15 -24 64 7 64 41 0 24 -24 32 -46 15z"/> <path d="M1363 813 c-18 -6 -16 -43 1 -43 16 0 30 30 19 40 -4 4 -14 5 -20 3z"/> <path d="M1073 803 c-16 -6 -17 -29 -3 -38 11 -7 40 12 40 25 0 11 -22 18 -37 13z"/> <path d="M268 773 c6 -2 18 -2 25 0 6 3 1 5 -13 5 -14 0 -19 -2 -12 -5z"/> <path d="M2486 755 c-18 -18 -21 -41 -6 -50 18 -11 -12 -45 -35 -39 -25 6 -48 -17 -43 -43 5 -26 41 -22 53 5 12 27 29 29 20 2 -5 -16 -2 -20 18 -20 25 0 44 25 27 35 -5 3 -7 12 -3 20 3 8 0 15 -7 15 -9 0 -7 6 4 19 19 21 18 62 0 68 -7 2 -19 -3 -28 -12z"/> <path d="M2550 749 c-7 -11 -9 -27 -6 -35 6 -17 37 -19 53 -3 8 8 13 8 17 0 20 -31 76 9 62 45 -7 17 -38 18 -54 2 -9 -9 -15 -9 -24 0 -18 18 -36 15 -48 -9z"/> <path d="M2412 748 c-30 -30 1 -74 33 -48 22 18 19 60 -3 60 -10 0 -23 -5 -30 -12z"/> <path d="M2690 750 c0 -7 3 -10 7 -7 3 4 3 10 0 14 -4 3 -7 0 -7 -7z"/> <path d="M1756 728 c-14 -19 -16 -19 -22 -5 -8 22 -40 22 -53 0 -9 -17 -10 -17 -16 0 -9 21 -38 22 -55 2 -11 -13 -14 -13 -26 2 -17 24 -48 6 -52 -31 -3 -20 1 -26 17 -26 11 0 26 6 33 14 11 11 15 11 24 -2 10 -13 16 -14 37 -5 17 8 28 8 35 1 12 -12 52 -1 52 14 0 6 9 3 19 -6 16 -14 23 -15 41 -6 15 8 25 9 32 2 7 -7 19 -7 35 -1 14 5 29 6 34 3 18 -11 56 5 62 26 7 28 -19 47 -44 32 -15 -10 -23 -9 -38 0 -16 10 -23 9 -39 -5 -17 -16 -21 -16 -32 -2 -17 20 -26 19 -44 -7z"/> <path d="M2347 743 c-16 -15 -6 -34 15 -31 29 4 38 38 10 38 -10 0 -22 -3 -25 -7z"/> <path d="M1260 730 c0 -6 -11 -8 -25 -4 -14 3 -32 1 -39 -5 -11 -9 -19 -9 -34 0 -16 10 -23 10 -36 0 -11 -9 -20 -10 -35 -1 -17 8 -24 7 -41 -10 -36 -36 -23 -55 37 -53 28 0 61 4 74 8 18 6 21 4 16 -10 -4 -9 -7 -19 -7 -21 0 -2 -10 -2 -23 1 -15 4 -28 1 -37 -10 -12 -14 -15 -14 -31 1 -17 16 -21 16 -36 1 -16 -13 -20 -14 -37 -1 -18 13 -23 11 -48 -13 -44 -42 -37 -53 35 -51 34 0 69 5 78 9 9 5 21 3 27 -3 15 -15 62 5 62 27 0 8 4 15 9 15 5 0 7 -9 4 -20 -6 -23 -4 -24 32 -10 17 7 24 14 18 22 -4 7 -6 21 -4 32 1 11 -2 16 -8 12 -6 -4 -11 -2 -11 3 0 6 6 11 14 11 8 0 21 8 28 18 7 10 21 21 31 25 21 8 23 37 2 37 -8 0 -15 -5 -15 -10z"/> <path d="M1466 718 c-30 -42 -16 -65 28 -48 39 15 32 70 -9 70 -2 0 -11 -10 -19 -22z"/> <path d="M1977 733 c-16 -15 -6 -34 15 -31 29 4 38 38 10 38 -10 0 -22 -3 -25 -7z"/> <path d="M2690 719 c0 -5 5 -7 10 -4 6 3 10 8 10 11 0 2 -4 4 -10 4 -5 0 -10 -5 -10 -11z"/> <path d="M622 704 c-12 -8 -22 -10 -22 -5 0 17 -48 13 -58 -5 -8 -15 -10 -15 -15 0 -8 19 -38 21 -56 4 -11 -10 -14 -10 -18 0 -5 14 -39 16 -48 2 -3 -5 -12 -7 -20 -3 -8 3 -15 0 -15 -6 0 -6 6 -11 13 -11 6 0 4 -5 -5 -11 -37 -21 -17 -30 65 -28 131 2 123 5 121 -41 -2 -35 1 -40 20 -41 148 -8 156 -8 170 6 9 9 16 11 18 4 2 -6 12 -7 27 -1 32 11 36 58 6 66 -11 3 -25 0 -30 -8 -7 -10 -14 -10 -27 -2 -13 8 -21 6 -35 -6 -15 -14 -20 -14 -31 -2 -10 11 -18 12 -32 4 -11 -6 -20 -15 -20 -20 0 -6 -5 -10 -11 -10 -6 0 -8 9 -4 22 6 16 4 20 -8 15 -8 -3 -18 0 -20 7 -3 8 5 13 27 13 39 0 105 18 119 32 19 19 -7 35 -33 21 -19 -10 -24 -10 -32 4 -11 20 -18 20 -46 0z"/> <path d="M1393 705 c-3 -9 -3 -18 0 -21 10 -10 47 7 47 22 0 19 -39 18 -47 -1z"/> <path d="M985 699 c-10 -15 1 -22 24 -14 12 3 19 11 16 16 -8 12 -32 11 -40 -2z"/> <path d="M2193 664 c-4 -10 -2 -19 4 -21 6 -2 8 -13 5 -25 -5 -19 -2 -20 24 -15 17 3 36 2 44 -3 10 -6 22 -2 37 12 20 18 23 19 23 5 0 -18 17 -22 44 -11 20 8 21 53 1 61 -9 3 -24 -2 -34 -11 -16 -15 -19 -15 -24 -1 -9 21 -33 19 -50 -6 -15 -20 -35 -10 -22 11 3 6 2 10 -4 10 -5 0 -16 3 -25 6 -10 4 -18 -1 -23 -12z"/> <path d="M1794 655 c-4 -10 -15 -12 -34 -9 -21 5 -31 1 -44 -17 -13 -19 -16 -20 -16 -6 0 25 -28 32 -49 13 -16 -15 -19 -15 -24 -1 -8 19 -32 20 -49 1 -11 -12 -15 -12 -30 1 -16 15 -20 14 -39 -3 -19 -17 -21 -18 -30 -1 -13 23 -24 22 -49 -5 l-20 -22 0 27 c0 32 -10 34 -33 9 -35 -38 -14 -93 22 -59 11 9 14 10 18 0 6 -16 35 -17 51 -1 8 8 15 8 26 -1 10 -8 21 -9 33 -3 10 5 47 8 83 7 35 -2 72 1 82 6 12 6 18 6 18 0 0 -6 21 -9 48 -7 38 2 49 7 59 27 7 13 13 32 13 42 0 21 -28 23 -36 2z"/> <path d="M1843 633 c4 -3 10 -3 14 0 3 4 0 7 -7 7 -7 0 -10 -3 -7 -7z"/> <path d="M2130 630 c0 -5 9 -10 19 -10 11 0 23 5 26 10 4 6 -5 10 -19 10 -14 0 -26 -4 -26 -10z"/> <path d="M2540 619 c0 -5 5 -7 10 -4 6 3 10 8 10 11 0 2 -4 4 -10 4 -5 0 -10 -5 -10 -11z"/> <path d="M338 603 c7 -3 16 -2 19 1 4 3 -2 6 -13 5 -11 0 -14 -3 -6 -6z"/> <path d="M1840 599 c0 -5 5 -7 10 -4 6 3 10 8 10 11 0 2 -4 4 -10 4 -5 0 -10 -5 -10 -11z"/> <path d="M1938 559 c-23 -13 -23 -55 -1 -64 12 -4 24 1 35 15 14 18 18 19 18 6 0 -19 40 -22 59 -3 11 10 14 10 18 0 6 -16 35 -17 51 -1 32 32 -3 75 -36 45 -15 -13 -19 -13 -30 -1 -17 18 -27 18 -47 -3 -16 -16 -18 -16 -27 0 -10 19 -16 20 -40 6z"/> <path d="M2146 554 c-3 -9 -6 -24 -6 -35 0 -23 32 -26 50 -4 11 13 14 13 26 -2 17 -24 48 -6 52 31 3 22 -1 26 -20 26 -13 0 -29 -5 -35 -11 -8 -8 -13 -8 -17 0 -11 16 -43 13 -50 -5z"/> <path d="M1857 553 c-13 -12 -7 -54 8 -59 21 -9 45 14 45 42 0 18 -5 24 -23 24 -13 0 -27 -3 -30 -7z"/> <path d="M2286 545 c-3 -9 1 -18 9 -21 16 -6 45 12 45 27 0 16 -48 10 -54 -6z"/> <path d="M870 518 c0 -15 -1 -31 -2 -35 -5 -11 175 -13 189 -1 9 7 13 7 13 -1 0 -16 36 -13 54 5 9 8 16 24 16 34 0 24 -30 34 -49 16 -13 -14 -17 -14 -33 1 -17 15 -19 15 -38 -2 -19 -17 -21 -17 -33 -1 -12 16 -14 16 -39 -3 -32 -26 -42 -27 -29 -3 9 16 6 19 -20 19 -25 0 -29 -4 -29 -29z"/> <path d="M1787 543 c-16 -15 -6 -34 15 -31 29 4 38 38 10 38 -10 0 -22 -3 -25 -7z"/> <path d="M1153 493 c4 -3 10 -3 14 0 3 4 0 7 -7 7 -7 0 -10 -3 -7 -7z"/> <path d="M2164 475 c-5 -11 -10 -12 -25 -2 -15 9 -24 9 -40 -2 -17 -10 -23 -10 -29 -1 -8 14 -50 4 -50 -11 0 -5 -11 -2 -24 6 -22 15 -25 14 -42 -2 -12 -13 -19 -14 -22 -5 -4 14 -48 16 -57 2 -4 -6 -13 -5 -25 3 -16 9 -24 9 -40 0 -12 -8 -21 -9 -25 -3 -11 18 -44 11 -56 -12 l-12 -22 -8 22 c-10 26 -22 28 -43 6 -15 -14 -17 -14 -32 1 -15 15 -18 14 -39 -5 -19 -18 -23 -19 -28 -6 -7 18 -42 22 -52 6 -4 -6 -13 -5 -25 3 -16 9 -24 9 -40 -1 -16 -9 -24 -10 -39 0 -15 9 -23 9 -34 -1 -12 -10 -20 -10 -37 1 -19 11 -24 10 -40 -10 -17 -20 -39 -15 -26 7 9 13 -32 21 -42 7 -5 -6 -9 -24 -10 -39 -2 -25 1 -28 26 -26 15 1 35 -1 44 -5 9 -4 26 -2 38 4 27 14 37 6 19 -16 -7 -9 -13 -28 -13 -42 0 -23 4 -27 30 -26 16 1 32 -3 36 -10 6 -8 16 -6 36 5 26 15 30 15 39 0 9 -14 12 -14 36 2 15 10 27 13 27 7 0 -14 43 -13 58 2 30 30 0 78 -33 54 -15 -10 -23 -11 -37 -2 -14 8 -23 8 -40 -3 -16 -10 -23 -10 -26 -2 -5 16 -37 14 -52 -4 -19 -22 -32 -18 -24 7 11 35 36 50 50 30 11 -14 14 -14 38 1 14 10 26 13 26 7 0 -14 43 -13 58 2 10 10 15 10 21 -1 12 -19 61 -6 62 17 0 13 3 11 9 -5 10 -24 26 -29 50 -13 9 5 19 5 27 -1 13 -12 53 -3 53 12 0 5 9 4 19 -3 15 -9 26 -9 44 -1 24 11 37 8 37 -8 0 -4 -9 -9 -20 -11 -12 -2 -21 -6 -20 -10 0 -5 0 -19 0 -33 0 -20 5 -25 24 -25 21 0 24 4 23 34 -1 25 6 40 24 54 20 17 25 18 32 6 10 -18 31 -18 47 1 11 14 15 14 29 0 15 -13 20 -13 38 0 13 9 24 11 28 6 3 -6 27 -9 53 -8 40 2 49 6 60 30 7 15 10 32 7 37 -9 15 -35 12 -41 -5z"/> <path d="M893 445 c-3 -9 -3 -18 0 -22 10 -10 37 6 37 22 0 20 -29 20 -37 0z"/> <path d="M1091 444 c-12 -9 -21 -11 -21 -5 0 15 -33 14 -48 -1 -8 -8 -15 -8 -26 1 -21 18 -55 4 -62 -25 -9 -34 6 -47 39 -35 17 7 28 7 32 0 4 -5 11 -6 17 -3 5 3 28 6 51 6 48 -1 67 11 67 43 0 29 -22 38 -49 19z"/> <path d="M1167 433 c-13 -12 -7 -23 12 -23 26 0 35 16 15 24 -19 7 -19 7 -27 -1z"/> <path d="M1636 364 c-23 -23 -21 -64 3 -64 11 0 26 7 34 15 13 13 16 13 21 0 7 -19 30 -19 46 0 11 13 14 13 27 0 18 -19 49 -5 58 26 10 32 -9 45 -42 30 -19 -9 -29 -9 -31 -2 -6 17 -30 13 -50 -9 l-19 -21 -6 21 c-6 24 -20 26 -41 4z"/> <path d="M1921 367 c-6 -6 -11 -17 -11 -23 0 -21 17 -24 33 -6 12 14 13 19 2 29 -9 8 -15 9 -24 0z"/> <path d="M1973 363 c4 -3 10 -3 14 0 3 4 0 7 -7 7 -7 0 -10 -3 -7 -7z"/> <path d="M910 345 c-9 -11 -16 -13 -24 -5 -24 24 -57 7 -70 -37 -6 -19 -4 -23 16 -23 13 0 30 4 38 10 9 6 17 5 22 -3 5 -9 14 -9 37 0 22 8 31 8 34 -1 7 -18 62 16 65 42 4 29 -23 39 -47 18 -16 -15 -19 -15 -24 -1 -8 19 -31 19 -47 0z"/> <path d="M1281 342 c-16 -29 1 -45 27 -26 18 13 21 19 11 30 -15 19 -26 18 -38 -4z"/> <path d="M1057 343 c-10 -9 -8 -43 2 -43 5 0 14 7 21 15 17 21 -4 48 -23 28z"/> <path d="M763 324 c-9 -23 19 -37 37 -18 13 13 13 16 0 24 -21 14 -30 12 -37 -6z"/> <path d="M1973 333 c4 -3 10 -3 14 0 3 4 0 7 -7 7 -7 0 -10 -3 -7 -7z"/> <path d="M1245 310 c3 -5 8 -10 11 -10 2 0 4 5 4 10 0 6 -5 10 -11 10 -5 0 -7 -4 -4 -10z"/> <path d="M995 270 c-4 -6 -17 -9 -30 -6 -14 4 -28 0 -35 -9 -11 -14 -15 -14 -29 0 -15 13 -20 13 -41 -2 -14 -10 -35 -16 -46 -15 -12 2 -25 -2 -29 -7 -4 -7 5 -11 24 -11 20 0 30 -5 29 -12 -2 -9 12 -14 42 -15 65 -2 88 4 95 27 3 11 13 20 20 20 19 0 29 20 17 32 -6 6 -12 6 -17 -2z"/> </g> </svg> 